<?xml version="1.0" standalone="no"?>
<!DOCTYPE svg PUBLIC "-//W3C//DTD SVG 20010904//EN"
 "http://www.w3.org/TR/2001/REC-SVG-20010904/DTD/svg10.dtd">
<svg version="1.0" xmlns="http://www.w3.org/2000/svg"
 width="1024.000000pt" height="1024.000000pt" viewBox="0 0 1024.000000 1024.000000"
 preserveAspectRatio="xMidYMid meet">

<g transform="translate(0.000000,1024.000000) scale(0.100000,-0.100000)"
fill="#000000" stroke="none">
<path d="M1352 9759 c-106 -9 -240 -41 -322 -77 -50 -21 -174 -117 -232 -178
-108 -115 -227 -325 -269 -474 -21 -77 -24 -104 -23 -295 0 -202 1 -215 31
-332 51 -198 127 -337 254 -464 56 -56 184 -146 264 -187 69 -34 203 -72 354
-98 228 -41 373 -29 578 48 44 16 95 42 112 56 l31 27 4 153 c4 151 -4 265
-17 278 -4 4 -24 -5 -44 -19 -20 -15 -39 -24 -41 -22 -3 2 -7 24 -9 47 -3 24
-11 50 -19 58 -13 13 -18 13 -42 -2 -127 -79 -232 -123 -357 -149 -101 -22
-107 -22 -202 -6 -112 19 -155 43 -215 122 -72 95 -112 203 -128 344 -19 178
33 366 139 500 122 154 372 226 595 171 103 -25 132 -38 163 -74 25 -29 35
-31 63 -16 16 9 27 4 60 -26 63 -57 67 -47 69 169 1 100 -2 187 -7 194 -4 7
-28 21 -54 33 -30 13 -48 28 -52 43 -6 26 -41 44 -191 100 -188 71 -315 90
-493 76z m343 -79 c44 -12 105 -32 135 -45 30 -12 78 -32 105 -42 l50 -20 2
-161 c1 -132 -1 -162 -12 -162 -8 0 -17 5 -21 11 -11 19 -111 58 -225 89 -290
79 -568 5 -700 -186 -74 -108 -127 -255 -136 -380 -7 -84 10 -236 35 -315 23
-73 83 -177 130 -226 40 -41 131 -107 187 -135 46 -24 167 -48 238 -48 112 0
314 54 394 106 12 7 37 22 56 33 l35 19 6 -59 c4 -32 4 -116 0 -186 -7 -144
-2 -135 -102 -184 -201 -98 -446 -108 -692 -27 -84 27 -128 49 -220 110 -97
65 -159 125 -225 218 -75 107 -102 166 -135 293 -57 228 -62 482 -12 657 58
201 225 432 398 552 62 44 195 91 301 108 98 15 317 5 408 -20z"/>
<path d="M4205 9344 c-108 -22 -139 -31 -200 -61 -38 -19 -75 -39 -82 -45 -9
-7 -13 -7 -13 0 0 6 -7 18 -16 27 -14 14 -36 15 -168 10 -83 -3 -159 -8 -168
-11 -13 -4 -18 -16 -18 -44 0 -33 -3 -38 -27 -43 -36 -7 -43 -2 -43 33 0 54
-12 58 -203 56 -131 -1 -178 -4 -190 -15 -15 -12 -17 -53 -18 -395 0 -421 -9
-518 -48 -560 -30 -32 -99 -56 -182 -63 l-66 -6 -22 37 c-43 69 -53 185 -49
574 l3 352 -53 0 -54 0 7 39 c3 21 3 41 -2 44 -10 7 -361 13 -367 7 -11 -12
-21 -254 -20 -525 0 -265 2 -311 21 -395 40 -183 119 -344 199 -405 84 -64
361 -145 496 -145 58 0 223 25 295 44 126 34 241 127 283 229 13 31 26 57 29
57 3 0 6 -51 6 -112 l0 -113 68 -5 c37 -3 67 -9 67 -15 0 -6 57 -10 153 -10
l152 0 3 165 c2 183 8 234 23 224 21 -12 216 -66 291 -79 169 -30 348 25 458
141 28 30 52 54 53 54 1 0 4 -66 5 -147 1 -82 5 -185 8 -231 7 -95 21 -112 89
-112 22 -1 51 -7 65 -15 33 -19 285 -21 297 -2 4 6 9 117 10 246 1 128 4 235
6 238 3 2 67 7 143 10 l137 6 -7 -230 c-6 -181 -5 -232 5 -239 7 -4 35 -9 62
-11 28 -2 55 -7 61 -12 6 -5 77 -11 159 -13 129 -4 147 -3 147 11 0 9 3 86 6
171 3 85 7 372 8 638 l3 482 -43 0 c-43 0 -44 1 -44 34 0 18 -6 38 -13 44 -8
7 -71 12 -161 13 -117 1 -152 -2 -163 -14 -12 -11 -14 -55 -13 -239 0 -124 -2
-232 -6 -241 -5 -15 -24 -17 -135 -17 l-129 0 0 199 c0 221 -1 223 -66 223
-31 0 -35 3 -31 19 3 12 -3 30 -16 44 -22 25 -24 25 -197 26 -148 1 -176 -2
-186 -15 -7 -11 -10 -49 -7 -113 l5 -98 -52 53 c-28 28 -77 70 -108 92 -31 22
-77 55 -102 74 -85 63 -237 99 -335 80z m231 -85 c145 -60 255 -198 283 -353
19 -106 14 -234 -13 -312 -33 -99 -50 -127 -109 -188 -101 -104 -253 -152
-400 -128 -40 7 -101 22 -137 35 l-65 22 4 125 c1 69 4 126 5 128 2 1 28 -9
60 -23 82 -36 200 -36 274 1 65 32 107 83 123 147 40 168 -72 310 -246 309
-89 0 -208 -56 -293 -136 -64 -60 -69 -76 -77 -251 -4 -88 -8 -185 -10 -215
-2 -30 -7 -146 -11 -257 l-7 -201 -113 1 c-71 1 -114 5 -115 12 -1 29 4 1184
6 1210 l2 30 126 3 c98 2 127 0 128 -10 1 -7 2 -17 4 -23 1 -5 3 -16 3 -22 3
-23 44 -14 79 17 64 56 157 94 273 110 80 12 145 3 226 -31z m-1898 -303 c-5
-372 4 -546 30 -615 49 -125 100 -162 227 -163 122 -1 247 48 279 109 31 61
40 173 40 483 -1 168 1 335 3 373 l5 67 150 0 151 0 -7 -357 c-6 -359 -22
-565 -52 -669 -31 -110 -153 -218 -284 -253 -199 -53 -352 -54 -481 -4 -89 35
-159 80 -193 126 -63 85 -118 240 -137 392 -13 107 -15 472 -4 668 l7 118 135
-2 134 -2 -3 -271z m2612 12 c0 -225 2 -248 18 -256 9 -5 109 -7 222 -5 178 3
207 5 218 20 9 12 12 80 12 256 l0 239 116 -6 c64 -3 118 -7 119 -8 16 -16 1
-1235 -15 -1251 -4 -5 -61 -5 -125 -1 l-118 7 8 111 c4 61 8 174 9 251 l1 140
-225 0 c-124 0 -233 -4 -242 -7 -17 -7 -18 -29 -18 -258 l0 -250 -107 0 c-167
0 -150 -25 -157 228 -3 120 -9 402 -12 627 l-5 410 150 0 151 1 0 -248z m-772
-71 c30 -32 47 -119 33 -168 -12 -41 -51 -93 -82 -109 -69 -38 -208 -30 -286
16 -40 23 -41 26 -36 62 7 49 47 98 118 146 111 74 213 95 253 53z"/>
<path d="M6055 9255 c-10 -15 -15 -154 -20 -555 -4 -294 -9 -551 -10 -570 -2
-19 -4 -75 -6 -123 -3 -101 1 -107 69 -107 23 0 53 -6 65 -14 17 -11 96 -15
364 -19 188 -3 344 -2 348 1 3 3 24 7 46 9 29 3 44 0 52 -11 10 -14 35 -15
162 -13 154 4 195 13 196 45 0 9 20 64 43 122 l44 105 43 7 c24 3 110 7 191 7
l146 1 30 -83 c17 -45 35 -102 41 -125 13 -47 37 -65 86 -61 18 2 40 -3 48
-10 12 -10 56 -11 189 -7 146 4 174 7 176 20 4 20 29 20 65 1 38 -20 325 -25
336 -6 6 10 23 8 77 -8 235 -70 388 -64 557 21 102 51 238 220 291 360 79 208
14 586 -125 729 -82 85 -217 198 -266 222 -86 44 -179 67 -297 73 -93 4 -124
2 -191 -16 -131 -35 -125 -34 -125 -17 0 40 -22 45 -182 40 -118 -4 -157 -9
-171 -21 -16 -14 -17 -43 -16 -386 1 -368 -8 -798 -17 -825 -5 -14 -37 55
-158 334 -29 66 -87 219 -130 340 -43 121 -94 265 -113 320 -36 99 -60 135
-92 135 -10 0 -25 15 -34 35 -9 20 -29 40 -43 45 -35 14 -303 23 -333 12 -19
-7 -42 -50 -118 -228 -160 -372 -215 -503 -283 -674 -57 -142 -69 -165 -89
-168 -18 -3 -22 0 -18 11 3 8 -1 24 -9 36 -14 20 -23 21 -192 21 l-177 0 -3
60 -2 60 190 0 190 0 0 134 c0 144 -1 148 -53 150 -24 1 -31 7 -41 36 l-11 35
-130 3 -130 3 3 58 4 58 156 6 c86 4 190 7 230 7 53 0 74 4 78 14 8 20 -83
278 -103 294 -9 6 -27 12 -39 12 -17 0 -24 8 -29 29 -12 57 -8 56 -393 56
-344 0 -355 -1 -367 -20z m744 -157 c22 -68 39 -123 38 -124 -1 -2 -94 -5
-207 -9 -113 -3 -214 -8 -226 -10 -19 -4 -22 -15 -32 -116 -8 -76 -8 -117 -1
-130 11 -21 36 -23 253 -21 l119 1 -7 -61 c-3 -33 -6 -83 -6 -109 l0 -49 -179
0 c-123 0 -182 -4 -187 -11 -8 -13 -13 -228 -6 -247 4 -11 45 -13 221 -8 121
3 222 2 230 -3 11 -7 4 -33 -35 -136 l-48 -127 -256 6 c-140 4 -288 7 -329 8
l-73 2 6 111 c10 150 25 843 20 897 -2 24 -1 91 2 151 l6 107 328 0 329 0 40
-122z m1833 80 c3 -36 7 -44 26 -46 14 -2 33 5 45 16 24 22 133 57 208 67 67
9 208 -11 292 -41 175 -63 305 -215 350 -409 72 -308 20 -526 -171 -722 -140
-142 -368 -191 -562 -121 -74 26 -66 1 -62 196 l2 98 83 -28 c95 -32 188 -37
259 -13 79 28 138 107 188 255 67 199 -70 472 -257 510 -113 24 -237 -3 -340
-72 -24 -16 -45 -39 -47 -51 -3 -12 -7 -212 -9 -445 -3 -233 -7 -425 -10 -429
-10 -9 -261 -3 -270 6 -5 5 -4 169 3 383 6 205 11 486 10 623 -1 138 -2 253
-1 258 0 4 59 7 130 7 l130 0 3 -42z m-938 23 c19 -7 72 -128 101 -231 12 -40
83 -243 135 -385 24 -67 70 -174 134 -320 88 -196 138 -309 143 -322 4 -10
-29 -13 -145 -13 l-150 0 -6 28 c-7 29 -14 48 -99 272 -31 80 -90 237 -133
350 -94 251 -99 262 -126 258 -12 -2 -25 -10 -29 -18 -16 -29 -139 -313 -139
-321 0 -4 7 -15 16 -24 14 -13 34 -16 106 -14 69 2 91 0 99 -11 10 -17 69
-201 69 -218 0 -8 -60 -12 -196 -14 l-197 -3 -29 -75 c-76 -196 -78 -198 -122
-204 -57 -8 -236 -7 -236 2 0 11 84 246 129 362 23 58 118 286 213 508 l172
402 135 -1 c75 0 145 -4 155 -8z m1453 -393 c53 -49 76 -97 98 -203 14 -69 14
-81 -1 -137 -36 -143 -104 -230 -192 -250 -67 -14 -158 -1 -229 34 l-48 23 2
135 c0 74 2 181 2 237 l1 102 35 27 c54 41 151 73 223 73 60 1 64 -1 109 -41z
m-1502 -298 c6 -22 6 -23 -6 -8 -8 9 -28 18 -46 20 l-32 3 20 45 21 45 18 -40
c9 -22 20 -51 25 -65z"/>
<path d="M2355 7204 c-49 -20 -106 -44 -125 -54 -20 -10 -74 -30 -120 -44 -47
-13 -125 -38 -175 -56 -155 -54 -375 -122 -499 -154 -88 -23 -122 -36 -130
-51 -6 -11 -14 -22 -17 -25 -51 -43 -31 -280 35 -400 13 -25 36 -67 50 -94 66
-120 149 -216 188 -216 24 0 285 86 303 100 6 4 39 18 75 31 36 12 67 26 70
30 3 3 23 15 45 26 22 11 57 30 77 42 l37 22 17 -33 c9 -18 36 -56 60 -85 43
-50 54 -73 34 -73 -10 0 -166 -121 -212 -165 -33 -31 -37 -81 -13 -138 21 -52
19 -60 -23 -86 -81 -50 -165 -194 -203 -351 -20 -81 -21 -99 -11 -158 21 -132
31 -168 64 -247 43 -101 73 -147 142 -222 31 -34 56 -68 56 -77 0 -9 -7 -31
-17 -49 -13 -25 -16 -64 -17 -188 l-1 -155 30 -50 c43 -68 114 -114 179 -114
32 0 56 6 68 17 17 15 18 15 18 -13 0 -77 95 -197 217 -275 47 -29 57 -41 59
-66 3 -39 50 -136 79 -163 19 -18 22 -29 18 -73 -3 -45 1 -62 36 -132 43 -88
102 -154 179 -200 46 -27 50 -32 45 -61 -6 -39 17 -85 59 -117 49 -37 167 -89
213 -94 76 -9 76 -9 -17 -144 -25 -35 -69 -99 -98 -142 -30 -43 -59 -76 -66
-73 -32 12 -104 16 -149 7 -27 -5 -51 -8 -53 -6 -2 1 -5 25 -7 53 -9 107 -58
280 -97 343 -13 20 -37 60 -54 87 -66 111 -213 202 -374 232 -25 5 -89 11
-143 15 -81 5 -110 3 -175 -15 -42 -12 -93 -29 -112 -37 -62 -29 -138 -92
-172 -143 -19 -28 -48 -58 -68 -68 -70 -36 -116 -71 -168 -128 -73 -82 -76
-85 -94 -124 -40 -87 -51 -144 -51 -255 1 -178 20 -238 149 -461 71 -123 128
-195 288 -359 121 -125 146 -162 146 -216 0 -29 58 -160 95 -216 20 -30 35
-56 33 -57 -2 -1 -24 -15 -50 -31 -64 -40 -76 -94 -36 -164 39 -68 220 -145
533 -226 199 -52 254 -65 365 -89 69 -14 170 -33 225 -42 55 -9 102 -17 105
-19 3 -2 37 -6 75 -10 39 -3 81 -8 95 -10 14 -2 72 -7 130 -10 58 -4 119 -8
135 -10 36 -4 174 -12 348 -21 70 -3 144 -8 165 -10 115 -12 644 1 867 21 33
3 121 10 195 15 234 17 294 23 463 45 72 9 242 47 276 61 52 22 128 82 152
120 l22 36 71 -6 c39 -4 92 -9 119 -12 214 -26 396 -32 991 -31 558 0 837 6
966 21 19 2 91 5 160 6 229 4 453 51 521 107 34 29 59 72 59 104 0 31 -68 95
-115 108 -22 6 -70 17 -107 23 -67 12 -68 13 -68 44 0 17 -5 46 -11 63 -10 28
-9 38 10 71 11 21 28 73 37 116 37 177 -12 385 -124 533 -50 67 -195 172 -266
194 -189 59 -260 67 -426 47 -89 -11 -217 -50 -262 -82 -32 -22 -42 -23 -58
-3 -7 9 -27 22 -44 29 -17 8 -52 23 -78 35 -26 11 -52 21 -58 21 -5 0 -11 5
-11 10 -6 45 -47 117 -81 143 -37 29 -108 57 -142 57 -17 0 -29 15 -54 63 -17
34 -59 112 -91 172 -33 61 -60 115 -60 120 -1 6 78 10 217 10 244 0 290 8 395
72 62 38 95 75 123 141 10 23 24 42 31 42 24 0 96 75 120 125 32 70 22 146
-29 201 -16 18 -17 28 -10 62 5 22 7 51 5 65 -4 20 2 29 34 48 57 35 153 129
175 173 30 58 46 123 48 195 1 55 7 73 39 127 21 35 51 102 66 148 23 71 27
97 23 156 -3 42 -11 77 -21 88 -8 9 -18 26 -21 38 -5 18 0 24 37 38 23 9 48
16 55 16 22 0 86 37 132 75 122 102 245 364 249 527 1 82 -34 249 -69 325 -28
59 -94 151 -130 180 -8 6 -35 22 -60 34 -25 12 -46 23 -48 24 -2 2 6 39 17 83
27 105 27 112 -10 153 -17 19 -44 50 -60 70 l-29 37 34 28 c45 38 198 152 246
184 74 48 161 107 188 127 32 24 33 26 27 81 -3 31 -8 76 -11 99 -7 72 -63
197 -128 284 -78 105 -183 168 -256 153 -19 -3 -45 -8 -58 -9 -37 -5 -110 -44
-257 -138 -179 -115 -239 -161 -352 -273 l-93 -91 -101 49 c-162 79 -568 231
-671 252 -13 3 -50 12 -83 21 -101 27 -125 33 -270 60 -224 42 -314 53 -409
51 l-88 -1 -40 -45 c-48 -55 -102 -137 -138 -210 -32 -64 -140 -333 -140 -348
0 -5 -16 -13 -35 -16 -32 -6 -82 -27 -151 -64 -79 -43 -153 -152 -179 -267
-24 -107 -11 -193 42 -290 6 -11 17 -34 23 -52 6 -17 38 -58 70 -92 56 -57 59
-63 61 -113 6 -134 108 -422 185 -524 13 -17 24 -33 24 -36 0 -13 -39 -22
-315 -73 -71 -13 -141 -25 -155 -27 -59 -7 -55 -58 5 -58 17 0 35 -3 38 -7 4
-3 24 -7 44 -9 94 -8 353 -55 353 -65 0 -3 -12 -24 -27 -45 -15 -21 -43 -71
-64 -110 -20 -39 -41 -79 -47 -90 -6 -10 -21 -47 -34 -81 -18 -49 -28 -63 -48
-67 -57 -12 -87 -42 -114 -113 -30 -79 -55 -193 -62 -277 -8 -102 56 -342 128
-479 39 -76 42 -100 27 -210 -19 -136 -15 -167 24 -199 17 -15 49 -33 70 -38
39 -11 44 -17 51 -60 3 -14 6 -27 7 -30 1 -3 3 -9 3 -15 1 -5 7 -19 12 -30 6
-11 16 -47 23 -80 12 -59 66 -236 80 -264 4 -9 -5 -27 -26 -50 -18 -20 -45
-65 -60 -100 -26 -61 -30 -65 -91 -92 -35 -16 -68 -29 -72 -29 -5 0 -30 13
-57 30 -55 34 -203 85 -289 99 -79 13 -223 6 -282 -13 l-48 -16 -48 45 c-27
25 -54 45 -61 45 -31 0 -33 25 -8 105 127 410 138 436 201 452 28 7 92 47 105
66 4 7 5 59 1 117 l-6 105 40 45 c108 123 154 231 173 410 16 147 8 246 -30
357 -17 50 -31 99 -31 107 0 8 -20 27 -45 42 -25 14 -45 30 -45 35 0 5 -16 43
-35 84 -57 121 -58 124 -31 119 13 -2 42 -11 66 -19 35 -12 159 -37 368 -72
18 -3 35 -10 38 -14 20 -32 74 19 74 69 0 19 24 68 84 175 15 26 26 55 24 64
-3 13 -70 44 -87 41 -29 -7 -188 22 -336 59 -331 84 -353 91 -381 106 -42 23
-121 57 -133 57 -21 0 -9 16 92 120 172 177 210 232 264 380 88 243 114 384
118 655 4 245 -15 380 -84 590 -71 219 -111 243 -388 231 -82 -3 -159 -8 -173
-10 -14 -2 -47 -7 -75 -10 -141 -17 -215 -27 -265 -36 -30 -5 -115 -19 -189
-30 -272 -41 -656 -149 -929 -261 -53 -21 -100 -39 -104 -39 -25 0 -188 186
-188 214 0 4 -24 40 -53 79 -58 79 -62 85 -125 214 -24 48 -50 102 -59 120 -8
17 -26 34 -38 37 -13 3 -29 8 -37 10 -7 3 -53 -11 -103 -30z m123 -93 c24 -33
106 -191 100 -195 -1 -1 -29 -7 -62 -14 -51 -10 -117 -43 -181 -92 -34 -26
-120 -114 -142 -145 l-21 -29 4 29 c17 161 36 240 79 330 40 84 55 99 126 125
70 25 72 25 97 -9z m-277 -98 c-10 -21 -28 -78 -40 -128 -12 -49 -25 -103 -29
-120 -5 -16 -7 -84 -6 -150 l2 -120 -22 28 c-32 40 -75 121 -103 195 -24 66
-42 227 -26 248 7 10 200 79 231 82 9 2 7 -9 -7 -35z m6270 -21 c24 -16 61
-49 82 -73 90 -104 129 -190 141 -311 4 -50 1 -53 -170 -169 l-112 -76 -26 83
c-55 167 -176 294 -327 341 -63 19 -71 28 -38 38 11 4 49 27 84 51 95 67 250
144 288 144 19 0 52 -12 78 -28z m-2229 -63 c29 -6 68 -22 86 -36 31 -23 95
-113 87 -121 -2 -2 -16 5 -32 16 -15 11 -53 27 -84 37 -54 17 -56 17 -96 -3
-40 -21 -132 -116 -144 -150 -5 -14 9 -35 53 -81 32 -35 57 -68 55 -74 -2 -7
-44 -19 -92 -27 -80 -13 -91 -18 -105 -42 -10 -19 -23 -28 -41 -28 -24 0 -140
20 -147 25 -4 3 82 222 116 295 32 69 52 95 99 128 54 38 87 54 130 62 55 11
57 11 115 -1z m284 -53 c54 -13 119 -27 144 -31 25 -4 99 -23 165 -42 173 -51
197 -58 230 -72 17 -7 60 -24 97 -36 37 -13 75 -28 85 -34 16 -9 16 -10 -6
-11 -37 0 -142 -41 -180 -69 -19 -14 -77 -75 -129 -136 -143 -168 -225 -354
-238 -541 -12 -163 25 -265 131 -361 102 -94 221 -134 328 -112 82 18 234 106
296 171 64 69 148 221 191 347 73 216 79 326 25 499 -8 23 -7 23 36 -6 24 -16
85 -55 134 -88 188 -122 405 -293 440 -346 22 -34 26 -48 22 -82 -11 -77 -107
-340 -187 -512 -22 -47 -40 -88 -40 -90 0 -3 -12 -23 -27 -47 -15 -23 -36 -58
-46 -77 -74 -137 -290 -362 -445 -464 -148 -97 -202 -123 -337 -163 -170 -50
-183 -53 -292 -57 -175 -6 -321 20 -528 95 -122 44 -144 54 -260 118 -182 102
-364 284 -426 428 -51 117 -118 337 -107 349 3 2 26 -5 52 -16 26 -11 54 -20
62 -20 8 0 22 -4 32 -9 56 -30 289 -40 387 -16 33 8 71 14 85 15 40 0 145 55
194 100 44 41 94 114 101 148 1 9 9 45 15 80 19 96 0 194 -57 301 -26 47 -57
95 -70 107 l-24 23 31 98 c37 112 47 177 56 350 l7 122 -32 55 c-17 31 -27 56
-23 56 5 0 54 -11 108 -24z m-1621 -16 c21 -10 40 -35 62 -80 18 -36 33 -73
33 -82 0 -10 8 -39 19 -65 36 -92 65 -270 64 -398 0 -104 -3 -130 -26 -194
-28 -79 -68 -129 -123 -156 -34 -16 -90 -20 -97 -7 -3 4 1 30 8 57 15 59 -1
129 -35 157 -18 14 -20 29 -21 137 -2 140 -3 143 -95 161 -97 19 -98 21 -21
92 37 35 67 69 67 76 0 24 -79 130 -122 165 -63 50 -96 59 -145 37 -22 -10
-49 -30 -61 -45 -12 -16 -23 -26 -25 -24 -10 17 -57 121 -57 128 0 7 78 23
180 36 25 3 97 8 160 11 63 3 116 6 117 8 8 8 94 -2 118 -14z m-3331 -109 c-6
-90 -5 -105 20 -177 40 -116 69 -172 125 -241 l51 -63 -38 -16 c-20 -8 -65
-23 -100 -32 l-62 -17 -34 35 c-60 60 -145 224 -172 329 -26 101 -29 146 -14
185 8 21 24 30 97 51 48 15 97 30 108 35 11 5 21 9 23 9 1 1 -1 -43 -4 -98z
m2715 37 c8 -18 24 -55 37 -83 71 -159 97 -351 79 -585 -7 -95 -39 -215 -59
-227 -8 -4 -24 -26 -37 -48 -58 -102 -179 -210 -304 -273 -139 -70 -322 -103
-500 -90 -108 8 -250 33 -270 48 -5 4 -22 10 -36 13 -75 18 -269 178 -397 328
-41 47 -112 191 -151 305 -33 97 -37 124 -21 124 6 0 67 32 136 70 68 39 127
70 130 70 3 0 35 14 72 31 217 100 492 194 692 235 47 9 93 21 102 26 18 9
336 65 423 75 28 3 52 7 54 9 14 13 38 -1 50 -28z m3722 -42 c26 -8 55 -19 65
-24 11 -5 33 -16 49 -23 47 -22 139 -119 164 -174 28 -61 33 -75 56 -144 17
-52 17 -54 -1 -64 -10 -6 -45 -35 -76 -65 l-57 -54 -33 23 c-18 13 -35 26 -38
29 -16 20 -228 166 -341 236 -52 31 -95 58 -97 59 -1 1 32 36 75 78 155 150
151 148 234 123z m-5194 -178 c23 -24 43 -46 43 -50 0 -3 -26 -20 -57 -36 -91
-46 -292 -160 -359 -203 -97 -62 -118 -36 -51 61 56 82 106 131 230 229 19 15
98 39 131 40 11 1 39 -18 63 -41z m4608 2 c109 -43 148 -72 178 -133 14 -29
28 -68 32 -87 l6 -35 -23 25 c-68 72 -165 85 -254 34 -55 -31 -144 -108 -144
-124 0 -6 11 -31 25 -58 33 -64 61 -152 57 -180 -2 -13 -13 -27 -25 -31 -65
-24 -128 -41 -150 -41 -29 0 -57 -24 -57 -49 0 -9 -5 -22 -11 -28 -14 -14 -23
-120 -15 -176 10 -66 57 -131 111 -154 25 -10 45 -21 45 -24 0 -15 -93 -31
-140 -25 -81 11 -137 41 -210 114 -89 90 -110 147 -106 294 4 112 23 181 88
314 83 169 244 343 353 382 61 21 159 14 240 -18z m-1435 -224 c95 -13 258
-98 337 -175 54 -53 102 -138 126 -222 24 -84 12 -216 -24 -266 -68 -96 -148
-144 -289 -173 -114 -24 -185 -25 -224 -5 -15 8 -32 13 -36 10 -21 -13 -230
57 -250 84 -3 4 -26 22 -52 40 -60 43 -102 96 -145 183 -29 60 -34 81 -35 151
-3 136 30 210 126 286 26 20 163 71 194 71 15 1 50 6 78 13 51 12 124 13 194
3z m-3405 -113 c24 -110 122 -317 194 -407 131 -164 343 -321 486 -361 177
-50 476 -48 606 4 13 5 44 15 69 22 71 21 203 99 285 168 32 27 155 180 155
193 0 4 5 8 10 8 6 0 10 -8 10 -18 0 -23 51 -52 117 -68 59 -14 132 0 208 38
32 17 57 20 125 19 76 -2 91 1 132 24 26 14 57 42 69 61 12 19 23 34 24 32 5
-5 -31 -204 -48 -268 -52 -196 -114 -322 -210 -427 -108 -118 -230 -236 -292
-283 -61 -46 -178 -120 -189 -120 -4 0 -23 -11 -44 -24 -118 -74 -362 -140
-586 -156 -259 -20 -475 23 -734 146 -100 48 -227 125 -243 146 -3 5 -20 16
-37 26 -55 30 -162 133 -238 228 -41 51 -74 96 -74 100 0 4 -15 25 -33 48 -46
58 -141 247 -167 336 -12 41 -31 98 -41 126 -33 93 -27 108 68 182 45 36 83
69 83 74 0 4 5 8 11 8 6 0 40 21 77 47 74 53 183 122 194 123 4 0 10 -12 13
-27z m-470 -570 c10 -32 33 -93 52 -137 33 -77 33 -80 19 -125 -23 -73 -24
-84 -15 -149 10 -71 44 -145 86 -184 36 -35 109 -67 150 -68 44 0 47 -12 14
-44 -21 -20 -41 -28 -80 -32 -69 -6 -89 -15 -155 -68 l-56 -46 -55 68 c-104
125 -164 289 -166 452 -2 121 64 270 161 365 14 14 25 25 26 25 1 0 9 -26 19
-57z m6328 -22 c53 -49 111 -176 127 -273 17 -105 8 -225 -24 -314 -46 -129
-122 -239 -201 -290 -43 -27 -147 -73 -198 -87 -5 -1 -15 18 -24 43 -18 56
-69 109 -137 146 -69 37 -107 85 -50 64 33 -13 148 -4 183 15 41 21 113 84
132 114 43 72 64 235 37 298 -6 15 -25 42 -40 59 -28 30 -29 32 -14 65 26 61
43 103 66 166 l22 62 42 -16 c22 -9 58 -32 79 -52z m-239 -316 c19 -28 21
-101 5 -160 -21 -76 -105 -142 -191 -150 -39 -4 -39 -3 -25 18 45 65 126 200
152 254 17 34 33 62 36 62 4 1 14 -10 23 -24z m-5930 -7 c3 -13 37 -61 76
-108 39 -47 77 -93 85 -103 21 -24 19 -27 -12 -26 -84 2 -161 97 -167 204 -3
56 7 74 18 33z m331 -420 c-33 -79 -70 -275 -74 -388 0 -24 21 -96 39 -131 19
-38 -57 -120 -111 -118 -29 1 -79 29 -89 49 -4 8 -15 32 -26 54 -24 51 -24
255 1 268 8 5 15 17 15 28 0 28 86 193 115 220 15 14 49 29 83 36 31 7 58 13
59 13 1 1 -4 -14 -12 -31z m129 -43 c20 -14 39 -25 42 -25 2 0 34 -19 70 -42
l66 -43 -5 -80 c-6 -108 -31 -176 -85 -236 -43 -48 -45 -49 -103 -49 -63 0
-84 13 -115 75 -15 29 -21 146 -9 165 3 5 8 28 11 52 3 24 12 56 20 72 8 16
14 36 14 44 0 17 41 92 50 92 4 0 24 -11 44 -25z m5133 -21 c12 -35 -3 -186
-21 -222 -25 -49 -126 -162 -145 -162 -5 0 -11 -4 -13 -9 -5 -16 -109 -81
-136 -86 -15 -3 -66 -8 -113 -11 -72 -6 -91 -4 -115 10 -35 21 -65 60 -65 84
0 49 6 57 58 73 127 40 343 174 461 285 37 35 70 63 74 64 3 0 10 -12 15 -26z
m-5541 -41 c-39 -80 -60 -226 -53 -361 4 -64 8 -126 9 -137 2 -12 -6 -24 -24
-32 -54 -27 -106 24 -126 122 -13 64 -1 237 21 287 29 68 135 168 179 168 15
0 15 -5 -6 -47z m5677 -30 c4 -7 14 -19 23 -27 45 -46 58 -189 24 -276 -11
-27 -43 -85 -72 -127 -54 -78 -68 -88 -192 -143 -77 -34 -165 -8 -211 62 l-26
39 68 30 c65 30 115 63 158 104 39 38 115 132 115 144 0 6 9 28 20 48 12 23
20 57 20 85 0 26 4 58 10 73 9 23 12 24 32 13 13 -7 26 -18 31 -25z m154 -300
c10 -96 -81 -293 -156 -337 -51 -30 -118 -37 -144 -16 -21 17 -21 17 24 46 66
42 99 71 123 107 60 89 96 158 112 215 20 70 32 66 41 -15z m-4747 -12 c0 -4
10 -21 22 -37 26 -32 31 -54 15 -58 -7 -2 -43 -9 -82 -16 -38 -6 -89 -19 -113
-27 -34 -13 -50 -14 -80 -5 -92 27 -174 21 -254 -19 -48 -25 -70 -24 -38 1 72
56 237 124 380 156 66 14 150 17 150 5z m2785 -165 c89 -14 387 -81 443 -101
8 -3 -13 -20 -47 -38 -82 -44 -240 -197 -241 -233 0 -6 -7 -17 -15 -24 -8 -7
-25 -45 -37 -84 -65 -212 21 -493 211 -682 l41 -41 -41 -6 c-38 -5 -81 -2
-135 9 -23 4 -34 28 -40 84 -2 19 -12 46 -22 60 -17 21 -27 25 -68 24 -284 -8
-317 -6 -447 37 -42 14 -62 4 -51 -25 15 -38 210 -105 307 -106 36 0 38 -2 35
-27 -4 -38 -42 -49 -188 -57 -154 -9 -341 18 -359 53 -5 9 -5 45 0 81 18 153
18 183 0 209 -39 58 -94 196 -122 307 -27 105 -30 131 -26 219 5 99 35 232 62
268 12 16 71 36 170 58 22 5 65 15 95 22 73 19 330 15 475 -7z m-2584 -30 c18
-9 36 -16 40 -16 5 0 41 -19 80 -42 165 -98 273 -300 272 -509 -1 -85 -18
-150 -69 -249 -46 -91 -58 -106 -155 -196 -136 -125 -257 -177 -412 -176 -63
0 -93 6 -163 34 -47 18 -102 48 -122 66 l-37 32 50 -5 c28 -3 80 -11 117 -16
95 -15 191 8 283 67 105 67 99 92 -10 40 -75 -36 -106 -44 -200 -50 -64 -5
-245 51 -275 85 -3 3 -26 20 -51 37 -66 44 -120 110 -148 176 -28 67 -21 82
30 69 51 -14 230 16 289 47 60 32 157 130 179 182 13 29 30 68 39 86 10 20 16
60 16 105 0 58 -5 81 -24 117 -14 25 -28 47 -31 50 -3 3 -11 15 -18 28 -14 26
-15 26 79 45 85 17 200 14 241 -7z m3489 -3 c25 -8 69 -25 98 -39 29 -13 54
-24 57 -24 2 0 31 -16 65 -36 105 -61 166 -137 129 -160 -6 -3 -23 8 -37 25
-52 60 -209 119 -271 102 -16 -4 -46 5 -100 31 -41 21 -81 38 -88 38 -20 0
-16 28 8 62 19 27 25 29 58 23 19 -4 56 -13 81 -22z m-3996 -24 c151 -28 226
-175 164 -322 -27 -67 -83 -141 -128 -172 -48 -34 -152 -65 -215 -65 -82 0
-164 51 -205 129 l-12 24 90 -7 c78 -6 97 -5 135 12 24 11 54 35 67 53 13 19
27 36 30 39 19 15 40 98 40 158 0 69 -11 95 -37 85 -14 -6 -103 37 -103 49 0
4 17 10 38 13 20 4 42 8 47 10 18 6 30 5 89 -6z m3871 -132 l59 -25 -34 -14
c-35 -15 -100 -74 -100 -91 0 -9 -24 -67 -41 -99 -14 -27 -10 -178 6 -232 39
-128 154 -240 271 -262 51 -10 122 -10 157 -1 l27 8 -15 -36 c-31 -75 -128
-161 -195 -171 -26 -4 -40 -12 -40 -22 0 -36 189 23 229 72 8 9 18 16 24 16 6
0 18 7 28 15 9 9 46 21 82 26 81 13 181 -8 210 -44 28 -34 17 -100 -23 -142
-79 -82 -212 -114 -448 -108 -206 5 -374 43 -465 105 -19 13 -58 39 -88 59
-123 83 -203 210 -238 379 -21 97 -19 180 4 250 20 60 80 153 128 198 l35 34
61 -16 c33 -8 83 -27 110 -40 43 -22 51 -23 67 -11 18 14 18 15 -6 34 -36 28
-140 60 -174 54 -70 -14 21 44 124 79 74 24 166 19 245 -15z m298 -85 c31 -15
57 -33 57 -39 0 -7 -3 -13 -7 -14 -113 -10 -167 -39 -210 -113 -28 -48 -5
-197 40 -260 27 -37 100 -70 135 -60 31 8 104 13 114 7 12 -6 -65 -73 -85 -73
-10 0 -32 -8 -48 -17 -27 -16 -33 -16 -101 0 -125 30 -205 104 -234 217 -36
141 7 291 96 339 103 55 148 57 243 13z m501 -421 c9 -14 -5 -41 -21 -41 -14
0 -43 23 -43 34 0 2 10 7 23 9 12 2 25 5 29 6 4 0 9 -3 12 -8z m-119 -73 c31
-13 78 -43 105 -68 75 -69 78 -122 13 -188 -27 -28 -37 -33 -41 -22 -7 21 -59
68 -96 87 -31 16 -178 20 -233 7 -23 -6 -25 -5 -19 12 5 10 11 28 13 39 3 11
25 40 48 65 24 25 48 55 54 68 10 18 20 22 56 22 25 0 70 -10 100 -22z m-3785
-338 c19 -10 19 -12 2 -48 -47 -102 -192 -347 -305 -515 -70 -103 -130 -195
-135 -203 -6 -11 -18 -5 -58 32 -49 46 -176 134 -194 134 -24 0 -18 25 16 78
65 97 179 258 204 288 21 24 40 32 111 46 105 22 217 80 285 149 54 55 49 52
74 39z m345 -52 c-4 -24 -12 -51 -17 -61 -15 -28 20 -89 64 -110 l36 -18 -21
-62 c-11 -34 -31 -89 -43 -122 -12 -33 -38 -105 -58 -161 -36 -97 -38 -101
-68 -102 -124 -3 -259 -132 -261 -248 0 -39 -5 -48 -48 -87 -109 -99 -197
-248 -224 -382 -15 -69 -17 -198 -5 -256 7 -33 11 -62 8 -64 -6 -6 -241 -23
-247 -19 -2 2 1 9 7 16 5 7 22 49 37 93 37 108 45 273 20 377 -17 70 -17 72 2
87 66 55 100 179 74 271 -5 20 4 41 44 102 27 43 102 157 166 255 64 98 129
200 144 226 21 38 30 47 43 40 42 -20 230 9 248 38 3 6 17 55 29 109 26 114
29 120 56 120 19 0 20 -4 14 -42z m2031 20 c3 -3 7 -27 8 -52 4 -57 33 -91 84
-101 111 -19 101 -10 185 -177 41 -84 92 -191 112 -238 20 -47 42 -96 49 -109
12 -22 10 -27 -40 -75 -49 -47 -61 -72 -55 -109 1 -5 3 -21 5 -35 1 -15 10
-42 20 -59 16 -31 16 -34 -4 -50 -11 -10 -20 -23 -20 -30 0 -30 -20 -17 -63
40 -25 34 -63 79 -85 101 -36 34 -39 41 -30 62 12 27 -8 106 -41 160 -21 34
-127 94 -167 94 -16 0 -24 8 -29 28 -6 23 -40 116 -65 177 -10 24 -65 173 -73
196 -4 13 7 21 48 33 68 22 86 43 91 103 2 26 3 48 4 48 34 0 61 -3 66 -7z
m560 -200 c12 -6 36 -13 53 -17 30 -6 39 -18 113 -161 44 -85 86 -166 93 -180
7 -14 23 -47 35 -75 13 -27 31 -61 41 -74 15 -18 16 -27 8 -38 -21 -24 -103
-54 -170 -62 -102 -11 -125 0 -168 79 -29 55 -89 177 -102 210 -8 19 -49 106
-92 193 -44 87 -77 161 -74 163 2 3 28 8 56 13 28 4 54 10 56 13 3 3 33 -8 68
-25 34 -16 72 -34 83 -39z m-894 32 c33 0 38 -4 43 -27 4 -16 11 -36 16 -47 6
-10 25 -60 44 -110 18 -51 37 -102 43 -113 6 -11 16 -38 21 -59 5 -22 19 -74
30 -116 12 -42 18 -83 16 -91 -11 -28 -78 -50 -165 -54 l-85 -4 -24 73 c-13
40 -32 91 -41 113 -26 57 -130 401 -130 427 0 11 20 13 98 11 53 -1 114 -3
134 -3z m-1201 -37 c-18 -34 -68 -191 -162 -511 -64 -218 -59 -212 -208 -212
-78 0 -104 4 -136 21 -72 38 -71 34 -16 153 28 59 51 111 51 116 0 10 94 270
110 305 5 11 15 43 23 70 l14 50 104 7 c57 4 131 11 164 16 33 4 61 7 63 6 2
-1 -1 -10 -7 -21z m1569 -490 c11 -10 20 -25 20 -35 0 -9 4 -19 8 -22 4 -3 6
-25 3 -49 -5 -35 -15 -55 -48 -89 -60 -63 -65 -66 -137 -84 -97 -24 -88 -45
18 -46 65 0 109 16 143 51 10 10 30 26 44 35 l27 17 45 -54 c26 -29 61 -82 79
-118 31 -61 33 -69 34 -189 1 -69 7 -137 13 -152 6 -17 7 -29 1 -33 -6 -4 -10
-15 -10 -25 0 -11 -16 -50 -35 -87 -32 -62 -41 -70 -93 -95 -31 -15 -70 -29
-87 -31 -16 -3 -64 -12 -105 -22 -76 -17 -196 -21 -244 -9 -24 6 -26 9 -21 48
2 22 1 66 -5 96 -5 30 -11 75 -14 100 -14 106 -58 200 -121 258 -57 52 -148
113 -225 150 -160 78 -409 64 -617 -34 -31 -15 -32 -15 -94 30 -35 25 -67 46
-73 46 -5 0 -2 8 6 18 27 30 47 90 43 130 l-4 38 52 11 c67 15 205 9 285 -12
78 -20 208 -72 243 -96 15 -10 47 -28 73 -39 25 -10 46 -23 46 -28 0 -17 60
-36 73 -23 8 8 3 22 -21 56 l-32 46 28 9 c15 6 35 14 44 20 13 7 23 2 47 -28
37 -47 121 -89 194 -98 81 -10 79 9 -7 51 -104 51 -146 101 -146 174 0 28 7
48 25 68 16 19 24 23 25 13 0 -26 49 -89 82 -106 48 -25 189 -21 266 8 76 29
127 85 111 124 -5 14 -9 28 -9 31 0 10 50 -7 70 -24z m986 -10 c42 -27 64 -81
54 -133 -5 -25 -9 -49 -10 -54 0 -17 -123 -126 -141 -126 -28 0 -49 -11 -49
-26 0 -22 85 -10 160 22 78 33 97 48 116 92 12 30 17 33 44 27 43 -9 82 -31
108 -58 l22 -23 -30 -22 c-45 -34 -112 -126 -104 -146 12 -32 48 -18 83 33 29
44 94 101 114 101 4 0 26 14 49 30 106 77 364 107 562 65 154 -32 301 -135
360 -253 56 -112 69 -172 63 -299 -5 -131 -30 -218 -71 -250 -89 -70 -374
-149 -576 -159 -128 -7 -259 11 -485 66 -107 27 -127 29 -180 19 -89 -15 -299
-12 -396 7 -118 22 -195 61 -240 121 -51 67 -59 86 -86 187 -33 127 -28 265
12 353 15 35 33 67 39 73 8 6 39 4 92 -7 66 -13 88 -14 137 -4 37 8 57 17 57
27 0 8 -3 14 -7 15 -202 14 -269 50 -280 150 -4 39 -1 47 25 72 l29 28 21 -35
c13 -21 29 -36 40 -36 11 0 37 -7 57 -16 64 -26 164 -12 311 45 37 14 78 81
69 111 -8 24 -2 25 31 3z m-646 -978 c0 -3 -15 -5 -34 -5 -30 0 -34 3 -31 21
2 12 10 27 16 35 10 12 15 10 30 -16 11 -17 19 -33 19 -35z m-158 -117 c-13
-13 -118 -36 -241 -53 -93 -13 -304 -16 -315 -4 -2 2 -1 18 1 36 l5 32 97 -5
c75 -4 124 0 226 19 157 30 167 32 202 49 28 13 28 13 31 -26 2 -21 -1 -43 -6
-48z m319 -2 c114 -52 216 -69 417 -71 95 -1 175 2 178 6 7 11 96 0 179 -21
59 -16 169 -37 285 -56 122 -19 394 10 550 59 134 42 205 69 221 83 15 14 17
12 23 -21 5 -24 2 -46 -9 -69 -14 -29 -28 -39 -84 -61 -131 -50 -306 -70 -611
-70 -246 0 -409 17 -502 52 -33 12 -75 15 -177 14 -74 -1 -178 3 -230 10 -107
12 -289 55 -309 71 -8 7 -12 29 -10 60 2 26 4 48 4 48 1 0 35 -15 75 -34z"/>
<path d="M7405 5418 c-27 -4 -99 -21 -160 -38 -60 -17 -139 -38 -174 -46 -35
-8 -67 -17 -72 -20 -16 -9 -136 -15 -349 -18 l-205 -2 -66 -31 c-60 -28 -69
-37 -98 -89 -30 -54 -32 -66 -32 -147 1 -76 5 -96 30 -145 50 -97 128 -156
270 -202 47 -15 111 -31 141 -35 93 -11 333 -6 411 9 166 32 351 100 423 156
80 62 131 121 167 193 75 153 69 258 -23 344 -55 52 -174 84 -263 71z"/>
<path d="M3243 6534 c-34 -17 -69 -57 -96 -110 -52 -102 -19 -315 81 -513 79
-158 146 -215 266 -227 54 -6 68 -3 112 19 56 28 77 54 90 107 12 52 5 147
-15 204 -17 51 -18 51 -67 57 -39 5 -122 37 -142 54 -2 2 22 39 52 84 59 86
61 91 46 119 -5 9 -17 34 -26 55 -19 42 -98 123 -147 149 -40 22 -112 22 -154
2z"/>
<path d="M3024 5390 c-47 -11 -92 -47 -117 -93 -31 -60 -30 -174 2 -239 88
-175 378 -304 677 -301 154 1 444 62 546 115 89 46 197 140 235 206 62 105 45
230 -37 272 -76 39 -212 44 -350 14 -288 -63 -472 -63 -700 2 -107 30 -125 34
-175 33 -27 -1 -64 -4 -81 -9z"/>
<path d="M3560 4113 c-112 -15 -149 -32 -131 -62 6 -9 29 -9 100 2 50 7 120
12 154 11 l62 -3 -25 19 c-22 17 -45 24 -115 34 -11 2 -31 1 -45 -1z"/>
<path d="M3492 3903 c-17 -3 -22 -10 -20 -26 3 -20 9 -22 73 -23 39 0 88 -4
110 -9 22 -5 45 -9 50 -10 6 0 16 -4 23 -9 22 -13 27 2 7 24 -39 43 -157 69
-243 53z"/>
<path d="M3455 3670 c-12 -19 14 -37 72 -49 32 -7 95 -32 141 -56 115 -59 104
-21 -18 61 -69 46 -178 71 -195 44z"/>
<path d="M6508 3804 c-54 -31 -63 -49 -19 -39 41 9 118 9 178 1 45 -7 54 -5
59 9 11 29 -18 44 -96 50 -69 5 -79 4 -122 -21z"/>
<path d="M6634 3619 c-39 -18 -124 -98 -124 -118 0 -5 38 11 85 35 47 24 96
44 108 44 33 0 62 24 54 44 -9 22 -70 20 -123 -5z"/>
</g>
</svg>
